<svg id="Btn-menu" xmlns="http://www.w3.org/2000/svg" viewBox="0 0 262.82 300"><defs><style>.cls-1{fill:#e8e8eb;}.cls-2{fill:#020202;}.cls-3{fill:#030303;}</style></defs><path class="cls-1" d="M149.23,300h88.53c36.84,0,43.72-7,43.62-44.43,0-3.62.11-7.24-.09-10.84-2.84-51.67-50.87-86-100.12-71.15-22.17,6.67-44.07,6.45-65.6-1.25C104.2,168.21,93.29,168.44,82,171c-42.95,9.81-64.22,41.24-63.39,93.61C19,290,28.52,299.76,53.49,299.9,85.4,300.09,117.32,300,149.23,300ZM224.84,74.32C224.4,33.36,190.23-.44,149.7,0,108.21.46,74.63,35.32,75.45,77.07c.79,40.59,35.79,74.34,76.11,73.39C192.56,149.49,225.28,115.5,224.84,74.32Z" transform="translate(-18.59 0)"/><path class="cls-2" d="M149.23,300c-31.91,0-63.83.14-95.74-.05-25-.14-34.47-9.95-34.88-35.27C17.78,212.26,39.05,180.83,82,171c11.29-2.58,22.2-2.81,33.57,1.26,21.53,7.7,43.43,7.92,65.6,1.25,49.25-14.84,97.28,19.48,100.12,71.15.2,3.6.08,7.22.09,10.84.1,37.41-6.78,44.42-43.62,44.43Z" transform="translate(-18.59 0)"/><path class="cls-3" d="M224.84,74.32c.44,41.18-32.28,75.17-73.28,76.14-40.32.95-75.32-32.8-76.11-73.39C74.63,35.32,108.21.46,149.7,0,190.23-.44,224.4,33.36,224.84,74.32Z" transform="translate(-18.59 0)"/></svg>