<svg id="Btn-menu" xmlns="http://www.w3.org/2000/svg" viewBox="0 0 297.07 191.46"><defs><style>.cls-1{fill:none;stroke:#000;stroke-miterlimit:10;stroke-width:7px;}</style></defs><path class="cls-1" d="M249.9,107.34V89.26a4.47,4.47,0,0,0-4.47-4.48H114.27a4.47,4.47,0,0,1-4.23-3L102.15,59a4.47,4.47,0,0,0-4.23-3H47.37a4.47,4.47,0,0,0-4.23,3L35.25,81.77a4.47,4.47,0,0,1-4.22,3H9.45A4.48,4.48,0,0,0,5,89.26V239.51" transform="translate(-1.47 -52.52)"/><path d="M290.67,114.34,242.48,237H11.33L59.52,114.34H290.67m2.68-7H58.29a5.19,5.19,0,0,0-4.83,3.28L3.82,237a5.16,5.16,0,0,0,4.83,7H243.71a5.19,5.19,0,0,0,4.83-3.28l49.64-126.32a5.16,5.16,0,0,0-4.83-7Z" transform="translate(-1.47 -52.52)"/></svg>