<svg id="Btn-menu" xmlns="http://www.w3.org/2000/svg" viewBox="0 0 300.59 240.68"><defs><style>.cls-1{fill:#fff;}</style></defs><path class="cls-1" d="M129.71,270.31c9.53.61,9-7.59,10.57-12.95q28-95.4,55.48-191c8.11-28.05,7.94-27.63-20.74-35.74-8.91-2.51-12.13-.45-14.42,8-5.81,21.48-12.41,42.74-18.63,64.11C128,150.64,114,198.46,100.4,246.4c-1.46,5.17-6.93,12.4,2.94,15.75C112,265.11,120.9,267.6,129.71,270.31ZM245.48,149.72c-8.68,7.74-17,15.11-25.26,22.51-22.44,20.08-22.21,19.86-1.37,41,6.22,6.3,10.52,6.57,16.84.51,19.6-18.82,39.32-37.52,59.55-55.65,7.83-7,5.81-11.36-.87-17.36-15.87-14.26-31.08-29.26-46.88-43.61-23.68-21.51-16.38-22.75-40.26,1.77-7.65,7.84-5.75,12.46,1.72,18.6C221.29,127.6,233,138.58,245.48,149.72Zm-191.12.09c8.72-7.8,16.69-14.82,24.54-22,25.21-22.95,26.57-14.43.76-42.76-5.19-5.69-9.41-5-14.61,0-20,19-40,38-60.4,56.6-6.71,6.12-6.52,10.41.12,16.39C21,172.6,36.48,187.93,52.62,202.55c23.43,21.24,15.71,22.83,40.15-2.05,6.76-6.88,6.52-11.52-.83-17.61C79.31,172.44,67.28,161.25,54.36,149.81Z" transform="translate(0.3 -29.66)"/><path class="cls-1" d="M129.71,270.31c-8.81-2.71-17.67-5.2-26.37-8.16-9.87-3.35-4.4-10.58-2.94-15.75C114,198.46,128,150.64,142,102.79c6.22-21.37,12.82-42.63,18.63-64.11,2.29-8.47,5.51-10.53,14.42-8,28.68,8.11,28.85,7.69,20.74,35.74q-27.63,95.52-55.48,191C138.71,262.72,139.24,270.92,129.71,270.31Z" transform="translate(0.3 -29.66)"/><path class="cls-1" d="M245.48,149.72C233,138.58,221.29,127.6,209,117.46c-7.47-6.14-9.37-10.76-1.72-18.6,23.88-24.52,16.58-23.28,40.26-1.77,15.8,14.35,31,29.35,46.88,43.61,6.68,6,8.7,10.34.87,17.36-20.23,18.13-40,36.83-59.55,55.65-6.32,6.06-10.62,5.79-16.84-.51-20.84-21.11-21.07-20.89,1.37-41C228.5,164.83,236.8,157.46,245.48,149.72Z" transform="translate(0.3 -29.66)"/><path class="cls-1" d="M54.36,149.81c12.92,11.44,25,22.63,37.58,33.08,7.35,6.09,7.59,10.73.83,17.61-24.44,24.88-16.72,23.29-40.15,2.05C36.48,187.93,21,172.6,4.77,158c-6.64-6-6.83-10.27-.12-16.39,20.38-18.59,40.41-37.58,60.4-56.6,5.2-4.94,9.42-5.65,14.61,0,25.81,28.33,24.45,19.81-.76,42.76C71.05,135,63.08,142,54.36,149.81Z" transform="translate(0.3 -29.66)"/></svg>