<svg id="Btn-menu" xmlns="http://www.w3.org/2000/svg" viewBox="0 0 300 240.14"><path d="M196,173l-15.22-9.59a80.85,80.85,0,0,0-.29-28.89L196,124.79a11.19,11.19,0,0,0,3.51-15.44L182.85,83a11.2,11.2,0,0,0-15.44-3.51l-13.87,8.73a81.07,81.07,0,0,0-25.16-14.75V56a11.2,11.2,0,0,0-11.2-11.2H86A11.21,11.21,0,0,0,74.8,56V72.79A81.18,81.18,0,0,0,47.7,88.21L33.78,79.45A11.2,11.2,0,0,0,18.34,83L1.72,109.35a11.2,11.2,0,0,0,3.51,15.44l15.6,9.82a80.91,80.91,0,0,0-.29,28.79L5.23,173a11.2,11.2,0,0,0-3.51,15.44l16.62,26.39a11.2,11.2,0,0,0,15.44,3.51l12.7-8A81.06,81.06,0,0,0,74.8,226.85v15.73A11.21,11.21,0,0,0,86,253.78h31.18a11.2,11.2,0,0,0,11.2-11.2V226.21a81,81,0,0,0,26.38-15.8l12.65,8a11.2,11.2,0,0,0,15.44-3.51l16.61-26.39A11.18,11.18,0,0,0,196,173Zm-95.31,10.51a33.73,33.73,0,1,1,33.73-33.73A33.73,33.73,0,0,1,100.64,183.55Z" transform="translate(0 -29.93)"/><path d="M294.55,65.61l-8.94-.2a40.1,40.1,0,0,0-3-6.11,41.21,41.21,0,0,0-4.52-6.14L282.22,45a5.58,5.58,0,0,0-2.45-7.49l-13.84-7A5.57,5.57,0,0,0,258.45,33l-3.69,7.27a40.4,40.4,0,0,0-14.5.14L235.81,33a5.56,5.56,0,0,0-7.64-1.91l-13.3,8A5.57,5.57,0,0,0,213,46.67l4.29,7.15a40.2,40.2,0,0,0-7.62,13.51l-8.18-.18a5.56,5.56,0,0,0-5.69,5.44L195.4,88.1a5.58,5.58,0,0,0,5.45,5.69L210,94a40.54,40.54,0,0,0,3.27,6.86,41.59,41.59,0,0,0,4,5.5l-4.06,8a5.57,5.57,0,0,0,2.45,7.49l13.83,7a5.58,5.58,0,0,0,7.49-2.45l3.37-6.66a40.52,40.52,0,0,0,16.3-.21l4,6.7a5.57,5.57,0,0,0,7.64,1.92l13.3-8a5.57,5.57,0,0,0,1.91-7.64l-4.18-7a40.45,40.45,0,0,0,7.21-13.48l7.44.16a5.57,5.57,0,0,0,5.69-5.44L300,71.3A5.57,5.57,0,0,0,294.55,65.61Zm-38,28.86a16.78,16.78,0,1,1,5.77-23A16.79,16.79,0,0,1,256.58,94.47Z" transform="translate(0 -29.93)"/><path d="M294.55,206.21l-8.94-.19a40.2,40.2,0,0,0-3-6.12,41.74,41.74,0,0,0-4.52-6.14l4.12-8.13a5.58,5.58,0,0,0-2.45-7.49l-13.84-7a5.57,5.57,0,0,0-7.48,2.45l-3.69,7.27a40.63,40.63,0,0,0-14.5.14l-4.45-7.42a5.56,5.56,0,0,0-7.64-1.91l-13.3,8a5.57,5.57,0,0,0-1.92,7.64l4.29,7.15a40.2,40.2,0,0,0-7.62,13.51l-8.18-.18a5.56,5.56,0,0,0-5.69,5.44l-.35,15.51a5.58,5.58,0,0,0,5.45,5.69l9.17.2a40.54,40.54,0,0,0,3.27,6.86,41.59,41.59,0,0,0,4,5.5l-4.06,8a5.57,5.57,0,0,0,2.45,7.49l13.83,7A5.58,5.58,0,0,0,237,267l3.37-6.66a40.52,40.52,0,0,0,16.3-.21l4,6.7a5.57,5.57,0,0,0,7.64,1.92l13.3-8a5.57,5.57,0,0,0,1.91-7.64l-4.18-7a40.45,40.45,0,0,0,7.21-13.48l7.44.16a5.57,5.57,0,0,0,5.69-5.44L300,211.9A5.57,5.57,0,0,0,294.55,206.21Zm-38,28.86a16.78,16.78,0,1,1,5.77-23A16.79,16.79,0,0,1,256.58,235.07Z" transform="translate(0 -29.93)"/></svg>