<svg id="Btn-menu" xmlns="http://www.w3.org/2000/svg" viewBox="0 0 300 298.1"><defs><style>.cls-1{fill:#0860a8;}</style></defs><path class="cls-1" d="M300,138v26.2c-.47.28-.48.28-.54.95a134.7,134.7,0,0,1-2.29,15.63A150.16,150.16,0,0,1,190.79,295.38a119.25,119.25,0,0,1-17.13,3.67c0-.43,0-.86,0-1.29V195.56c0-1.14,0-1.14,1.23-1.16h30.66c.67,0,1.34,0,2,0s1.1-.16,1.23-1c.81-5.59,1.69-11.18,2.55-16.77q1.83-11.94,3.66-23.87c.34-2.23.18-1.8-1.54-1.8H175.57c-.38,0-.77,0-1.15,0s-.83-.15-.79-.73c0-.24,0-.48,0-.72V123.18a32.5,32.5,0,0,1,.56-6.15c1.68-8.64,6.64-14.26,15.24-16.52a37,37,0,0,1,9.12-1.05c5.71,0,11.42,0,17.13,0,1.35,0,1.36,0,1.36-1.32V63.88c0-1.31,0-1.34-1.29-1.53q-3.78-.52-7.56-1a206.55,206.55,0,0,0-22.51-1.69A72.13,72.13,0,0,0,164.74,62c-15.85,4.41-27.12,14.07-33.32,29.42a69.3,69.3,0,0,0-4.64,25.75c-.08,10.65,0,21.3,0,32,0,2.12.24,1.84-1.82,1.85H90.09c-1.38,0-1.39,0-1.39,1.28v40.88c0,1.25,0,1.25,1.26,1.27h.86q17.06,0,34.12,0c2,0,1.81-.27,1.81,1.86q0,50.66,0,101.33c0,.48,0,1,0,1.44-.48,0-1-.06-1.43-.14a149.82,149.82,0,0,1-21.61-5.32,148.13,148.13,0,0,1-71.57-50.25C12.64,218.41,2.17,190.05.51,158.46c.14-2-.08-4.05,0-6.07,0-.31-.1-.56-.47-.58v-1.44a.44.44,0,0,0,.46-.45c0-1.85.21-3.71,0-5.57.16-2.87.35-5.74.63-8.6A143.33,143.33,0,0,1,5.36,112.3,150.31,150.31,0,0,1,104.6,8.17a144.18,144.18,0,0,1,31.78-6.41c1.39-.12,2.78-.21,4.16-.34.24,0,.72.09.53-.47h18.14c-.18.2-.09.35.12.39a11.3,11.3,0,0,0,1.29.14c4,.2,8,.67,12,1.27a141.85,141.85,0,0,1,30.81,8.08Q260,33,286.2,87.87a143,143,0,0,1,13,46.44c.12,1,.2,2.1.33,3.14C299.55,137.69,299.44,138.17,300,138Z" transform="translate(0 -0.95)"/></svg>