<svg id="Btn-menu" xmlns="http://www.w3.org/2000/svg" viewBox="0 0 299.86 299.86"><defs><style>.cls-1{fill:#9dabb0;}</style></defs><path class="cls-1" d="M150,71.32A78.68,78.68,0,1,0,228.68,150,78.68,78.68,0,0,0,150,71.32Zm0,131.22A52.54,52.54,0,1,1,202.54,150,52.54,52.54,0,0,1,150,202.54Z" transform="translate(-0.07 -0.07)"/><circle class="cls-1" cx="237.62" cy="70.09" r="17.88"/><path class="cls-1" d="M225.59.07H74.41A74.34,74.34,0,0,0,.07,74.41V225.59a74.34,74.34,0,0,0,74.34,74.34H225.59a74.34,74.34,0,0,0,74.34-74.34V74.41A74.34,74.34,0,0,0,225.59.07Zm51.29,216A60.86,60.86,0,0,1,216,276.88H84A60.86,60.86,0,0,1,23.12,216V84A60.86,60.86,0,0,1,84,23.12H216A60.86,60.86,0,0,1,276.88,84Z" transform="translate(-0.07 -0.07)"/></svg>