<svg id="Btn-menu" xmlns="http://www.w3.org/2000/svg" viewBox="0 0 300 300"><path d="M285.66,256.65H272.82L183.2,8.27A12.53,12.53,0,0,0,171.42,0H127.56a12.52,12.52,0,0,0-11.78,8.27L26.16,256.65H14.34A12.68,12.68,0,0,0,1.66,269.33v18A12.68,12.68,0,0,0,14.34,300H94.08a12.68,12.68,0,0,0,12.68-12.68v-18a12.68,12.68,0,0,0-12.68-12.68H84.16l16.27-45.08h98.12l16.27,45.08h-8.9a12.68,12.68,0,0,0-12.68,12.68v18A12.68,12.68,0,0,0,205.92,300h79.74a12.68,12.68,0,0,0,12.68-12.68v-18A12.68,12.68,0,0,0,285.66,256.65ZM119.28,159.33l30.21-83.72,30.21,83.72Z"/></svg>