<svg id="Btn-menu" xmlns="http://www.w3.org/2000/svg" viewBox="0 0 232.33 294.72"><defs><style>.cls-1{fill:#fff;}</style></defs><path class="cls-1" d="M34.83,57.74s-3.1,42.7,6,69.06S68.7,200,94.38,227.19s39.89,43.89,78.26,62.5,71-2.86,71-2.86S272,269.46,265.75,252.4c-9.94-15.87-43.47-54-60.21-49.21C189.42,207.75,175.71,225,171,229c-13.3,2.56-60.52-68.57-60.52-68.57s-28.74-54-22.93-57.15c1.63-2.4,27.38-12,38-20.56s-4.36-46.83-4.36-46.83-9.06-37-29.7-33S43.93,24.62,34.83,57.74Z" transform="translate(-34.32 -2.57)"/></svg>