<svg id="Btn-menu" xmlns="http://www.w3.org/2000/svg" viewBox="0 0 296.8 224.19"><defs><style>.cls-1{stroke:#000;stroke-miterlimit:10;stroke-width:7px;}</style></defs><path class="cls-1" d="M290,73.64H131.26a5.09,5.09,0,0,1-1.34-2.07l-9.24-26.64a5.24,5.24,0,0,0-5-3.52H56.52a5.24,5.24,0,0,0-5,3.52L42.34,71.57A5.19,5.19,0,0,1,41,73.64H10A4.91,4.91,0,0,0,5.1,78.55V253.69a4.9,4.9,0,0,0,4.91,4.9H290a4.9,4.9,0,0,0,4.91-4.9V78.55A4.91,4.91,0,0,0,290,73.64ZM54.84,46.06a1.78,1.78,0,0,1,1.68-1.2h59.21a1.79,1.79,0,0,1,1.69,1.2l9.23,26.64a8.7,8.7,0,0,0,.4,1H45.21a8.62,8.62,0,0,0,.39-1Zm236.6,207.63a1.45,1.45,0,0,1-1.45,1.45H10a1.45,1.45,0,0,1-1.45-1.45V78.55A1.45,1.45,0,0,1,10,77.1H290a1.45,1.45,0,0,1,1.45,1.45Z" transform="translate(-1.6 -37.91)"/></svg>