<svg id="Btn-menu" xmlns="http://www.w3.org/2000/svg" viewBox="0 0 299.29 206.98"><defs><style>.cls-1{fill:#0e61a7;}</style></defs><path class="cls-1" d="M299.63,146c0-4.46-.12-8.92-.3-13.37-.25-6.4-.71-12.78-1.21-19.16-.39-4.9-.76-9.81-1.33-14.69a118.18,118.18,0,0,0-2.64-15.3,57.91,57.91,0,0,0-5.5-14.38,35.22,35.22,0,0,0-19.23-16.41,55.56,55.56,0,0,0-9.59-2.38,148.87,148.87,0,0,0-15.6-2c-5.43-.36-10.88-.41-16.33-.59-7.72-.25-15.44-.43-23.16-.6-8.62-.18-17.23-.34-25.85-.43-9-.08-18.09-.22-27.6-.16-6.28-.06-13,.06-19.75.1q-11,.07-22,.36-7.38.18-14.75.4t-14.65.52c-3.66.15-7.31.33-11,.51-5.38.27-10.75.54-16.12.85-3.69.21-7.37.52-11.06.73a45,45,0,0,0-13.25,2.6,33.31,33.31,0,0,0-16.57,13A41.65,41.65,0,0,0,5.92,82C4.62,89.6,3.6,97.25,2.78,104.92q-1.06,10-1.66,20.13Q.53,134.79.4,144.54c-.1,5.77,0,11.55.13,17.33Q.82,172.46,1.61,183q.55,7.35,1.3,14.69a137.91,137.91,0,0,0,2.82,18,60.13,60.13,0,0,0,5.12,14.22A34.13,34.13,0,0,0,31.4,247.24a74.28,74.28,0,0,0,10.83,2.31,179.24,179.24,0,0,0,17.91,1.81c5.81.33,11.61.42,17.42.53,4.89.09,9.77,0,14.66.15,8.52.2,17,.31,25.55.46l21.39.39c6.2.13,12.41.1,18.6.44,2.11.12,4.23.07,6.34.11,4.52.08,9.05.05,13.57,0s8.78-.15,13.17-.26q6-.15,12.07-.39c5-.2,9.9-.41,14.84-.66,4.32-.23,8.63-.51,12.95-.77q7.06-.43,14.12-.89c2.41-.15,4.81-.33,7.21-.51,3.72-.29,7.45-.4,11.14-1a37,37,0,0,0,11.8-3.84,31.67,31.67,0,0,0,13.16-13.73,62.3,62.3,0,0,0,5.25-15A223.33,223.33,0,0,0,297,193.83c.6-4.85,1.05-9.71,1.45-14.58.36-4.51.66-9,.86-13.53C299.55,159.15,299.7,152.59,299.63,146ZM120.57,193.61V106c.68.15,75.51,43.07,76.28,43.76Z" transform="translate(-0.35 -46.51)"/></svg>