<svg id="Btn-menu" xmlns="http://www.w3.org/2000/svg" viewBox="0 0 274.22 295.35"><defs><style>.cls-1{fill:#838383;}</style></defs><path class="cls-1" d="M169.31,29H91.75V6.43a4.1,4.1,0,0,0-6.13-3.56L15,43.15a4.1,4.1,0,0,0,0,7.13L85.62,90.56A4.1,4.1,0,0,0,91.75,87V64.63h75.5a88.41,88.41,0,0,1,84.32,88.45v20.5A88.41,88.41,0,0,1,167.25,262H61.73v0H22.51a4.08,4.08,0,0,0-4.08,4.08v27.12a4.08,4.08,0,0,0,4.08,4.08H61.73v.34H169.31a117.93,117.93,0,0,0,117.8-117.8V146.79A117.94,117.94,0,0,0,169.31,29Z" transform="translate(-12.89 -2.33)"/></svg>