<svg xmlns="http://www.w3.org/2000/svg" viewBox="0 0 248.92 299.07"><defs><style>.cls-1{fill:#fff;}</style></defs><g id="Capa_2" data-name="Capa 2"><path class="cls-1" d="M130.1,194.54c-14-19.82-21.33-42.14-23.43-66-3.15-36.08,6.38-68.86,27.52-98.27A136.2,136.2,0,0,1,153.46,8.63c1.72-1.55,4.57-3.16,3-6.17s-4.09-2-6.64-1.23c-2.8.81-5.74,1.07-8.59,1.73C58.2,22.23,7.85,108.7,31.31,190.62,48.72,251.47,103.38,294.12,161.86,299c40.72,3.36,76.58-7.76,108.36-33,2-1.59,5.39-3,3.85-6.31-1.31-2.76-4.59-1.64-6.91-1.32a134.63,134.63,0,0,1-55.49-4.22c-33.65-9.51-60.77-28.44-80.28-57.78" transform="translate(-25.54 -0.46)"/><path class="cls-1" d="M131.39,196.33c19.51,29.34,46.63,48.27,80.28,57.78a134.63,134.63,0,0,0,55.49,4.22c2.32-.32,5.6-1.44,6.91,1.32,1.54,3.27-1.85,4.72-3.85,6.31-31.78,25.23-67.64,36.35-108.36,33-58.48-4.83-113.14-47.48-130.55-108.33C7.85,108.7,58.2,22.23,141.28,3c2.85-.66,5.79-.92,8.59-1.73,2.55-.74,5.16-1.71,6.64,1.23s-1.33,4.62-3,6.17a136.2,136.2,0,0,0-19.27,21.59c-21.14,29.41-30.67,62.19-27.52,98.27,2.1,23.91,9.42,46.23,23.43,66A13.45,13.45,0,0,0,131.39,196.33Z" transform="translate(-25.54 -0.46)"/></g></svg>