<svg id="Btn-menu" xmlns="http://www.w3.org/2000/svg" viewBox="0 0 299.86 299.86"><defs><style>.cls-1{fill:#0e61a7;}</style></defs><path class="cls-1" d="M150.19,72a78.69,78.69,0,1,0,78.68,78.69A78.68,78.68,0,0,0,150.19,72Zm0,131.22a52.54,52.54,0,1,1,52.54-52.53A52.53,52.53,0,0,1,150.19,203.26Z" transform="translate(-0.26 -0.8)"/><circle class="cls-1" cx="237.62" cy="70.09" r="17.88"/><path class="cls-1" d="M225.78.8H74.6A74.34,74.34,0,0,0,.26,75.14V226.32A74.34,74.34,0,0,0,74.6,300.66H225.78a74.34,74.34,0,0,0,74.34-74.34V75.14A74.34,74.34,0,0,0,225.78.8Zm51.29,216a60.86,60.86,0,0,1-60.86,60.86h-132A60.86,60.86,0,0,1,23.3,216.75v-132A60.87,60.87,0,0,1,84.17,23.84h132a60.86,60.86,0,0,1,60.86,60.87Z" transform="translate(-0.26 -0.8)"/></svg>