<svg id="Capa_2" data-name="Capa 2" xmlns="http://www.w3.org/2000/svg" viewBox="0 0 300 300"><defs><style>.cls-1{fill:#ffbc32;}</style></defs><circle class="cls-1" cx="150" cy="150" r="56.74"/><path class="cls-1" d="M252.25,149.91S294.7,98.75,299.32,83s-74.14-7.56-74.87-7.49c.41-4,7.86-79.19-7.51-74.7C201.16,5.38,150,47.84,150,47.84S98.84,5.38,83.05.77c-15.37-4.49-7.91,70.72-7.51,74.71C74.51,75.37-3.9,67.28.68,83s47.07,66.94,47.07,66.94S5.3,201.07.68,216.86s74.7,7.51,74.88,7.49c0,.09-8.29,79.49,7.49,74.88s67-47.07,67-47.07,51.16,42.46,66.95,47.07,7.48-74.88,7.48-74.88h0s79.5,8.29,74.89-7.49S252.25,149.91,252.25,149.91ZM150,216.5a66.59,66.59,0,1,1,66.59-66.59A66.59,66.59,0,0,1,150,216.5Z"/></svg>