<svg id="Btn-menu" xmlns="http://www.w3.org/2000/svg" viewBox="0 0 299.75 239.66"><defs><style>.cls-1{fill:#fff;}</style></defs><path class="cls-1" d="M116.89,120.08c4.51-4.14,8.62-7.87,12.68-11.66,13-12.17,13.74-7.65.4-22.68-2.68-3-4.87-2.65-7.55,0-10.34,10.09-20.7,20.16-31.24,30-3.47,3.24-3.37,5.52.07,8.69,8.37,7.73,16.39,15.86,24.74,23.62,12.11,11.27,8.12,12.12,20.76-1.08,3.49-3.66,3.37-6.12-.43-9.35C129.79,132.08,123.57,126.15,116.89,120.08Z" transform="translate(-0.13 -30.17)"/><path class="cls-1" d="M116.89,120.08c6.68,6.07,12.9,12,19.43,17.55,3.8,3.23,3.92,5.69.43,9.35-12.64,13.2-8.65,12.35-20.76,1.08-8.35-7.76-16.37-15.89-24.74-23.62-3.44-3.17-3.54-5.45-.07-8.69,10.54-9.87,20.9-19.94,31.24-30,2.68-2.63,4.87-3,7.55,0,13.34,15,12.64,10.51-.4,22.68C125.51,112.21,121.4,115.94,116.89,120.08Z" transform="translate(-0.13 -30.17)"/><path class="cls-1" d="M163.23,137.63c-3.8,3.23-3.92,5.69-.43,9.35,12.64,13.2,8.65,12.35,20.77,1.08,8.34-7.76,16.36-15.89,24.74-23.62,3.43-3.17,3.53-5.45.06-8.69-10.54-9.87-20.9-19.94-31.23-30-2.69-2.63-4.88-3-7.56,0-13.34,15-12.64,10.51.4,22.68,4.06,3.79,8.18,7.52,12.68,11.66C176,126.15,169.76,132.08,163.23,137.63Z" transform="translate(-0.13 -30.17)"/><path class="cls-1" d="M182.66,120.08c-6.68,6.07-12.9,12-19.43,17.55-3.8,3.23-3.92,5.69-.43,9.35,12.64,13.2,8.65,12.35,20.77,1.08,8.34-7.76,16.36-15.89,24.74-23.62,3.43-3.17,3.53-5.45.06-8.69-10.54-9.87-20.9-19.94-31.23-30-2.69-2.63-4.88-3-7.56,0-13.34,15-12.64,10.51.4,22.68C174,112.21,178.16,115.94,182.66,120.08Z" transform="translate(-0.13 -30.17)"/><path class="cls-1" d="M269.83,57.27c-.09-18.48-8.15-26.87-26.19-26.93q-93.72-.33-187.45,0c-17.61.06-25.6,8.16-25.67,25.62-.19,47.58.26,95.17-.33,142.75-.13,10.3,3.91,11.51,12.53,11.42,35.57-.39,71.14-.17,106.71-.17,36,0,72.1-.24,108.14.18,8.8.1,12.69-1.36,12.57-11.55C269.59,151.48,270,104.37,269.83,57.27ZM228.75,179.78c-26.42-.4-52.85-.16-79.28-.16s-52.86-.32-79.28.19c-8.36.17-10.41-2.56-10.31-10.56.41-33.15.36-66.31,0-99.47-.08-7.26,1.6-9.87,9.42-9.82q80.73.51,161.45,0c7,0,8.91,2.06,8.84,8.93-.32,33.63-.46,67.27.06,100.9C239.81,178.67,236.34,179.89,228.75,179.78Z" transform="translate(-0.13 -30.17)"/><path class="cls-1" d="M288,224.66c-33.18.25-66.36.06-99.54.17-2.73,0-8.45-.14-9,3.52a9.64,9.64,0,0,1-.64,2.59,9.86,9.86,0,0,1-1.4,2.25,15.94,15.94,0,0,1-4.61,3.71,39.41,39.41,0,0,1-14.25,4.22,71.21,71.21,0,0,1-17.18,0,39.41,39.41,0,0,1-14.25-4.22,15.94,15.94,0,0,1-4.61-3.71,9.86,9.86,0,0,1-1.4-2.25,9.64,9.64,0,0,1-.64-2.59c-.55-3.66-6.27-3.52-9-3.52-33.18-.11-66.36.08-99.54-.17C3,224.6.22,228.87.13,237c-.22,19.44,12.68,32.44,34,32.62,38.61.33,77.22.1,115.83.1s77.22.23,115.83-.1c21.36-.18,34.26-13.18,34-32.62C299.78,228.87,297,224.6,288,224.66Z" transform="translate(-0.13 -30.17)"/></svg>