<svg id="Btn-menu" xmlns="http://www.w3.org/2000/svg" viewBox="0 0 302.09 194.96"><defs><style>.cls-1{fill:none;stroke:#4e4e4e;stroke-miterlimit:10;stroke-width:7px;}</style></defs><path class="cls-1" d="M249.9,107.34V89.26a4.47,4.47,0,0,0-4.47-4.48H114.27a4.47,4.47,0,0,1-4.23-3L102.15,59a4.47,4.47,0,0,0-4.23-3H47.37a4.47,4.47,0,0,0-4.23,3L35.25,81.77a4.47,4.47,0,0,1-4.22,3H9.45A4.48,4.48,0,0,0,5,89.26V239.51" transform="translate(0.04 -52.52)"/><path class="cls-1" d="M243.71,244H8.65a5.16,5.16,0,0,1-4.83-7L53.46,110.62a5.19,5.19,0,0,1,4.83-3.28H293.35a5.16,5.16,0,0,1,4.83,7L248.54,240.7A5.19,5.19,0,0,1,243.71,244Z" transform="translate(0.04 -52.52)"/></svg>