<?xml version="1.0" encoding="UTF-8"?>
<svg id="señalador_superior" data-name="señalador superior" xmlns="http://www.w3.org/2000/svg" viewBox="0 0 276.58 103.14">
  <path d="M237.7,0c.64.58,1.89.58,2.53.03l-2.53-.03Z" fill="#d95314"/>
  <path d="M255.76.02c-.04.19.07.31.19.36.31.13.58-.1.53-.36h-.72Z" fill="#d95314"/>
  <path d="M242.76.02c-.04.19.07.31.19.36.31.13.58-.1.53-.36h-.72Z" fill="#d95314"/>
  <g>
    <path d="M260.46.02c.37.55,1.44.55,1.81,0h-1.81Z" fill="#d95314"/>
    <path d="M258.29.02c-.04.19.07.31.19.36.31.13.58-.1.53-.36h-.72Z" fill="#d95314"/>
    <g>
      <g>
        <path d="M263.01.12l6.3.4c3.11.4,5.17,2.11,6.31,5.17v90.94c-.01.98-1.25,1.84-1.81,2.07l-.02-94.23c-1.05-1.06-1.6-1.85-3.18-2.79.56,1.31.02,2.19.02,3.53l.02,95.55-62.93.04-.1-.87-.06-94.86c-.23,0-.23-.24-.16-.32l55.6.04-.02,95.15,5.4-.02V5.15c0-.44,1-.6,1.28-.68.31-1.38-.83-2.88-2.37-3l-4-.31-59.12.03c-2.34,0-4.29.22-6.56,0-3.81-.37-8.17.65-7.49,1.91.48.89,1.62,1.09,2.21,1.54-1.3.25-2.64.04-4.1-.33l-.39,9.55-1.51-3.28-12.47,5.54L41.51,77.9,2.24,96.54c2.51,1.89,4.8.81,7.23-.28l135.5-60.73,42.95-19.42.04,83.04-5.98-.05-110.35-.25-14.74-.05-50.66-.19c-2.05,0-3.84.02-5.64-.59.05-1.54.94-2.22,1.6-3.07.1,0,.3.03.38,0,.14-.07.29-.21.37-.35h.35c.5-.02.95-.24,1.08-.73h.36c.13-.02.3-.22.38-.36.1-.02.25-.03.35-.01.61.1,1.25-.1,1.46-.7.1-.03.25-.04.34-.02.39.11.52-.32.73-.42l8.84-4.46,21.25-10.15,5.3-2.32,13.7-6.53,15.52-7.21,5.1-2.54,27.28-12.74,13.51-6.35,9.05-4.36,41.36-19.22,11.6-5.42,5.64-2.83c-.69-3.78,1.96-8.04,6.22-8.06l45.36-.15c.64.58,1.89.58,2.53.03h2.53c-.04.19.07.3.19.36.31.13.58-.1.53-.36h12.28c-.04.19.07.31.19.36.31.13.58-.1.53-.36h1.81c-.04.19.07.31.19.36.31.13.58-.1.53-.36h1.44c.37.55,1.44.55,1.81,0,.25,0,.52.09.75.1ZM160.36,46.96c-6.1-1.03-12.12.85-16.3,4.98-1.43,1.41-3.25,2.95-3.67,5.2-.39,2.11-.1,5.11,1.05,6.94.61.84,1.97,1.12,1.62,2.78-.29,1.38.53,2.34,1.18,3.43,2.01,3.37,4.55,6.26,8.38,7.55.44.15.64.52.58.91-4.27-1.06-8.21-3.94-9.85-8.27-2.57-2.34-3.94-5.35-4.61-8.84-1.65,8.1,2.43,15.94,9.29,19.63,7.23,3.88,15.77,2.65,21.74-2.98.6-.57,1.34-.72,1.47-1.94-1.02.72-2.16.41-3.18.6l-4.28.82c-2.83.54-5.32,1.76-8.12,1.23.15-.39.43-.76.78-.98l.75-.02c.43.46,1.14.61,1.89.37l4.07-1.27c.72-.22,1.15-.87,1.23-1.46l.39-.2.36-.35c.09-.04.26-.02.36,0l.36-.36c.12-.12.24-.2.4-.28.8-.43,2.05-.96,2.47-1.89l1.61-3.58c2.14.79,2.24,2.61,3.18,4.67,2.9-5.59,2.7-11.88.04-17-2.72-5.23-7.68-8.74-13.17-9.67Z" fill="#e95e19"/>
        <path d="M187.84,13.84l.07,2.26.04,83.04-5.98-.05-110.35-.25-14.74-.05-50.66-.19c-2.05,0-3.84.02-5.64-.59.05-1.54.94-2.22,1.6-3.07-.66.51-1.72,1.18-2.06,2.24-.55,1.72.7,4.24,2.88,4.24l185.73.02,3.63,1.78,77.69-.04c1.81,0,3.39-1.46,4.11-2.45-.58-1.61-2.46.03-3.52.04l-62.93.04-13.63-.16c-1.22-.01-1.81-.98-1.81-2.17V6.62c0-.91.1-1.39.3-1.98-.08-.02-.17-.03-.25-.02-1.3.25-2.64.04-4.1-.33l-.39,9.55Z" fill="#c04118"/>
        <path d="M263.01.12l6.3.4c3.11.4,5.17,2.11,6.31,5.17v90.94c-.01.98-1.25,1.84-1.81,2.07l-.02-94.23c-1.05-1.06-1.6-1.85-3.18-2.79.56,1.31.02,2.19.02,3.53l.02,95.55c1.07,0,2.94-1.65,3.52-.04.13-.18.22-.31.35-.38.14-.34.4-.6.74-.74.34-.86,1.08-1.7,1.08-2.96l-.03-90.08c0-3.61-3-5.85-6.26-6.39l-7.05-.06Z" fill="#d95314"/>
        <path d="M274.53,100.35c.32-.16.6-.38.74-.74-.34.14-.6.4-.74.74Z" fill="#c04118"/>
        <path d="M192.59,4.64c-.2.59-.3,1.07-.3,1.98v91.85c0,1.19.58,2.15,1.8,2.17l13.63.16-.1-.87c-.83.21-1.77.45-2.7,0l-.02-94.76,2.65-.09c-.23,0-.23-.24-.16-.32l-14.81-.11Z" fill="#e25312"/>
        <path d="M192.34,4.63c.08-.01.17,0,.25.02l14.81.11,55.6.04-.02,95.15,5.4-.02V5.15c0-.44,1-.6,1.28-.68.31-1.38-.83-2.88-2.37-3l-4-.31-59.12.03c-2.34,0-4.29.22-6.56,0-3.81-.37-8.17.65-7.49,1.91.48.89,1.62,1.09,2.21,1.54Z" fill="#f1864e"/>
        <path d="M207.62,99.93l-.06-94.86-2.65.09.02,94.76c.93.45,1.87.22,2.7,0Z" fill="#c04118"/>
      </g>
      <g>
        <path d="M5.46,93.48c.61.1,1.25-.1,1.46-.7-.53.15-1.08.3-1.46.7Z" fill="#c04118"/>
        <path d="M7.25,92.76c.39.11.52-.32.73-.42-.3.03-.6.14-.73.42Z" fill="#c04118"/>
        <path d="M3.29,94.57c.5-.01.95-.24,1.08-.72-.43.02-.82.36-1.08.72Z" fill="#c04118"/>
        <path d="M4.73,93.84c.13,0,.3-.21.38-.34-.18.03-.33.18-.38.34Z" fill="#c04118"/>
        <path d="M2.57,94.93c.14-.07.29-.21.37-.35-.18,0-.33.18-.37.35Z" fill="#c04118"/>
        <path d="M187.92,16.1l-.07-2.26-1.51-3.28-12.47,5.54L41.51,77.9,2.24,96.54c2.51,1.89,4.8.81,7.23-.28l135.5-60.73,42.95-19.42Z" fill="#f18952"/>
        <path d="M144.05,51.95c.61.39.7.94.83,1.88.09.66,1.33.98,1.67,1.55.39.65-.42,1.56-1.23,1.98.59.78,1.24.28,1.67-.06,2.75-3.65,6.91-5.05,11.71-4.62,6.77.61,12.14,7.53,10.76,14.85l1.05-.14c.47-1.88.12-3.73.19-5.65.04-1.18,1.56-5.36,2.81-5.11-2.72-5.23-7.68-8.74-13.17-9.67-6.1-1.03-12.12.85-16.3,4.98Z" fill="#c04118"/>
        <path d="M155.63,79l-.79.05c-.33.02-.77,0-.95-.31h-.71c-4.27-1.04-8.21-3.92-9.85-8.25-2.57-2.34-3.94-5.35-4.61-8.84-1.65,8.1,2.43,15.94,9.29,19.63,7.23,3.88,15.77,2.65,21.74-2.98.6-.57,1.34-.72,1.47-1.94-1.02.72-2.16.41-3.18.6l-4.28.82c-2.83.54-5.32,1.76-8.12,1.23Z" fill="#f1864e"/>
        <path d="M169.47,67.54c-.35,1.87-1.16,3.84-2.48,5.47-.39.48-.9.77-.77,1.43.8-.43,2.05-.96,2.47-1.89l1.61-3.58c2.14.79,2.24,2.61,3.18,4.67,2.9-5.59,2.7-11.88.04-17-1.25-.25-2.77,3.93-2.81,5.11-.07,1.92.28,3.77-.19,5.65l-1.05.14Z" fill="#d95314"/>
        <path d="M153.19,78.75h.71s.31-.36.31-.36c.09-.1.46-.16.6-.07.23.15.19.49.04.72l.79-.05c.15-.39.43-.76.78-.98-2-.32-4.17-.71-6.14-1.88-5.9-3.5-8.04-11.51-4.41-17.32l1.14-1.51c-.43.34-1.08.84-1.67.06.8-.43,1.62-1.33,1.23-1.98-.34-.57-1.58-.89-1.67-1.55-.13-.94-.23-1.5-.83-1.88-1.43,1.41-3.25,2.95-3.67,5.2-.39,2.11-.1,5.11,1.05,6.94.61.84,1.97,1.12,1.62,2.78-.29,1.38.53,2.34,1.18,3.43,2.01,3.37,4.55,6.26,8.38,7.55.44.15.64.52.58.91Z" fill="#d95314"/>
        <path d="M157.16,78c.43.46,1.14.61,1.89.37l4.07-1.27c.72-.22,1.15-.87,1.23-1.46-2.24,1.17-4.66,2.3-7.2,2.36Z" fill="#d95314"/>
        <path d="M165.46,75.08l.36-.36-.36.36Z" fill="#d95314"/>
        <path d="M164.74,75.44l.36-.35c-.15.06-.29.21-.36.35Z" fill="#d95314"/>
        <path d="M153.9,78.74c.18.31.62.33.95.31.14-.24.18-.57-.04-.72-.14-.09-.51-.03-.6.07l-.31.34Z" fill="#e95e19"/>
      </g>
    </g>
  </g>
</svg>