<?xml version="1.0" encoding="UTF-8"?>
<svg xmlns="http://www.w3.org/2000/svg" viewBox="0 0 1223.04 701.73">
  <defs>
    <style>
      .cls-1 {
        fill: #fff;
      }

      .cls-2, .cls-3 {
        fill: #4e4e4e;
      }

      .cls-4 {
        fill: #001e6c;
      }

      .cls-3 {
        stroke: #4e4e4e;
        stroke-miterlimit: 10;
      }

      .cls-5 {
        fill: #0440dd;
      }
    </style>
  </defs>
  <g id="Detener">
    <rect class="cls-5" x="229.79" y="235.72" width="208.02" height="208.02" rx="39.36" ry="39.36"/>
  </g>
  <g id="Expandir">
    <path class="cls-3" d="M678.91,258.33c-9.05,8.92-18.11,17.83-27.15,26.76-7.14,7.05-14.23,14.14-21.37,21.19-4.16,4.11-9.44,4.26-12.96,.45-3.29-3.56-2.8-8.59,1.24-12.59,15.02-14.9,30.05-29.78,45.06-44.69,.97-.97,1.81-2.07,3.62-4.17h-27.18c-2.37,0-4.76,.12-7.11-.08-5.23-.45-8.61-4.09-8.48-8.92,.12-4.6,3.41-8.05,8.53-8.2,7.84-.24,15.68-.08,23.53-.09,10.4-.02,20.79-.09,31.19-.03,6.87,.04,9.74,2.77,9.78,9.58,.1,17.33,.11,34.66,.02,51.98-.03,6.1-3.5,9.76-8.71,9.75-5.21-.01-8.57-3.73-8.62-9.82-.08-10.17-.02-20.35-.02-30.52-.46-.19-.91-.39-1.37-.58v-.02Z"/>
    <path class="cls-3" d="M501.85,246.77c6.59,6.42,13.21,12.81,19.77,19.25,9.37,9.21,18.73,18.42,28.03,27.7,4.82,4.81,5.23,9.59,1.37,13.34-3.83,3.73-8.71,3.23-13.44-1.42-14.69-14.47-29.35-28.95-44.04-43.42-1.25-1.23-2.61-2.33-4.79-4.25-.18,3-.39,4.9-.4,6.79-.05,8.76,.12,17.52-.15,26.27-.15,4.97-3.75,8.1-8.51,8.21-4.78,.1-8.58-3.02-8.63-7.97-.19-18.43-.21-36.86-.05-55.29,.04-5.12,3.2-7.93,8.51-7.96,18.43-.11,36.86-.13,55.29,0,5.56,.04,8.76,3.36,8.76,8.37,0,5.3-3.25,8.69-9.02,8.81-8.76,.19-17.52,.09-26.28,.1h-5.74c-.23,.49-.45,.98-.68,1.47Z"/>
    <path class="cls-3" d="M680.27,420.14v-23.89c0-2.37-.08-4.76,.12-7.11,.45-5.34,3.95-8.57,8.91-8.41,4.66,.15,8.09,3.38,8.24,8.48,.23,8.39,.09,16.79,.1,25.18,0,8.94,.07,17.88,.02,26.83-.04,7.04-2.95,10.18-9.85,10.22-17.7,.11-35.4,.11-53.11,.04-6.29-.02-10.06-3.29-10.13-8.36-.08-5.42,3.71-8.89,10.18-8.95,10.39-.11,20.77-.03,32.25-.03-1.39-1.81-2.08-2.96-3-3.87-14.79-14.63-29.58-29.24-44.42-43.82-4.74-4.66-5.69-9.73-2.32-13.37,3.72-4.03,9.46-3.44,14.36,1.39,14.03,13.84,28.08,27.65,42.14,41.46,1.66,1.64,3.41,3.19,5.12,4.78,.47-.19,.93-.38,1.4-.57h0Z"/>
    <path class="cls-3" d="M489.68,421.15c9.18-9.03,18.36-18.06,27.53-27.1,6.75-6.66,13.44-13.37,20.2-20.02,4.51-4.43,9.92-4.96,13.55-1.42,3.66,3.57,3.14,8.68-1.61,13.39-14.51,14.36-29.1,28.65-43.64,42.98-1.24,1.22-2.37,2.57-4.7,5.12h14.81c5.65,0,11.3-.07,16.96-.02,6.88,.06,10.8,3.31,10.79,8.83-.01,5.42-3.94,8.55-10.99,8.58-15.13,.05-30.27,.03-45.4,.03-2.55,0-5.11,.06-7.66-.07-5.63-.29-8.51-2.95-8.54-8.51-.12-17.87-.12-35.74,.03-53.6,.05-5.43,3.55-8.6,8.61-8.53,5.08,.06,8.53,3.28,8.6,8.6,.15,10.37,.04,20.74,.04,31.12,.47,.21,.95,.42,1.42,.63h0Z"/>
  </g>
  <g id="Graficador">
    <path class="cls-2" d="M969.23,432.42h-201.97V238.55c0-4.68-3.79-8.48-8.47-8.48h0c-4.69,0-8.48,3.8-8.48,8.48v202.35c0,4.68,3.8,8.48,8.48,8.48h210.44c4.68,0,8.48-3.8,8.48-8.48h0c0-4.68-3.8-8.48-8.48-8.48Z"/>
    <path class="cls-2" d="M790.94,394.2h0c3.54,3.07,8.89,2.68,11.96-.85l47.21-54.46,25.45,25.2,4.92,4.87,2.18,2.16c.65,.64,1.4,1.11,2.21,1.4,2.21,.82,4.8,.34,6.57-1.45l1.66-1.68,2.83-3.49,63.19-77.8v20.68c0,4.68,3.8,8.48,8.48,8.48h0c4.68,0,8.48-3.8,8.48-8.48v-42.38c0-4.68-3.8-8.48-8.48-8.48h-42.4c-4.68,0-8.48,3.8-8.48,8.48s3.8,8.48,8.48,8.48h22.82l-61.73,75.99-29.64-29.35-2.15-2.13c-3.07-2.1-7.15-1.94-10.03,.34-.41,.33-.8,.69-1.16,1.1l-.48,.55-4.81,5.55-47.94,55.31c-3.07,3.54-2.68,8.89,.85,11.96h0Z"/>
  </g>
  <g id="Instrucciones">
    <g>
      <path class="cls-2" d="M1119.74,451.53c-56.96,0-103.3-46.33-103.3-103.3s46.33-103.3,103.3-103.3,103.3,46.33,103.3,103.3-46.33,103.3-103.3,103.3h0Zm0-188.79c-47.14,0-85.49,38.35-85.49,85.49s38.35,85.49,85.49,85.49,85.49-38.35,85.49-85.49-38.35-85.49-85.49-85.49h0Z"/>
      <path class="cls-2" d="M1120,334.75c-5.12,0-9,3.81-9.04,8.98-.15,18.72-.14,37.44-.02,56.17,.04,5.31,3.74,8.93,8.99,8.98,5.39,.06,9.23-3.71,9.26-9.22,.09-18.56,.1-37.11,0-55.66-.03-5.42-3.83-9.25-9.19-9.25Z"/>
      <path class="cls-2" d="M1119.95,287.97c-7.52-.06-13.81,6.05-13.95,13.58-.15,7.78,6.16,14.2,13.96,14.2s13.89-6.26,13.87-13.91c-.02-7.6-6.27-13.82-13.88-13.87Z"/>
    </g>
  </g>
  <g id="Start-Simulation">
    <path class="cls-4" d="M234.12,45.94c0-20.84,23.41-33.18,40.72-21.48l114.62,77.43c15.55,10.58,15.55,33.5,0,44.09l-114.62,77.43c-17.31,11.7-40.72-.64-40.72-21.48V45.94Z"/>
  </g>
  <g id="Simulation-Page">
    <path class="cls-3" d="M651.62,82.46L537,5.03c-17.31-11.7-40.72,.64-40.72,21.48V182.49c0,20.84,23.41,33.18,40.72,21.48l114.62-77.43c15.55-10.58,15.55-33.51,0-44.09Zm-6.87,41.92l-109.19,72.54c-15.66,10.58-33.9,.96-33.9-17.88V31.11c0-18.85,20.63-29.73,36.29-19.14l106.8,72.54c14.06,9.57,14.06,30.3,0,39.87Z"/>
  </g>
  <g id="stop">
    <g>
      <path class="cls-1" d="M28.2,493.73h0c15.58,0,28.2,12.63,28.2,28.2v151.59c0,15.58-12.63,28.2-28.2,28.2h0c-15.58,0-28.2-12.63-28.2-28.2v-151.59c0-15.58,12.63-28.2,28.2-28.2Z"/>
      <path class="cls-1" d="M123.39,493.73h0c15.58,0,28.2,12.63,28.2,28.2v151.59c0,15.58-12.63,28.2-28.2,28.2h0c-15.58,0-28.2-12.63-28.2-28.2v-151.59c0-15.58,12.63-28.2,28.2-28.2Z"/>
    </g>
  </g>
</svg>