<?xml version="1.0" encoding="UTF-8"?>
<svg id="Capa_36" data-name="Capa 36" xmlns="http://www.w3.org/2000/svg" viewBox="0 0 226.78 223.59">
  <defs>
    <style>
      .cls-1 {
        fill: #fcfcfc;
      }
    </style>
  </defs>
  <path class="cls-1" d="M224.94,92.89c.14-.16,.28-.32,.41-.49,.08-.11,.16-.22,.23-.33,.16-.23,.3-.47,.43-.72,.06-.12,.12-.24,.17-.37,.1-.23,.19-.46,.26-.7,.08-.24,.14-.49,.19-.75,.02-.11,.04-.22,.06-.33,.06-.4,.1-.81,.1-1.24,0-4.11-3.34-5.69-6.64-7.3-33.33-16.22-66.65-32.47-99.88-48.89-5.05-2.49-9.48-2.5-14.52,.03C72.58,48.43,39.34,64.89,6.09,81.3c-3.01,1.49-5.86,2.9-6.08,6.63-.24,4.18,2.59,6.14,5.96,7.76,4.94,2.38,9.82,4.89,14.73,7.33v.02s-.05,.08-.05,.08l17.84,8.8,4.87,2.4v13.23c-.56,5.58-.1,11.3,0,16.97v.32h0c.01,.7,.02,1.4,.02,2.09-.05,8.12,3.24,13.61,10.81,17.5,.71,.37,1.41,.75,2.12,1.12-.31-.14-.61-.28-.93-.42,1.07,.53,2.36,1.19,3.78,1.92,1.98,1.04,3.96,2.07,5.93,3.12,.91,.49,1.81,.97,2.72,1.46,12.44,6.69,28.63,15.66,35.83,19.44,6.15,3.23,11.74,3.57,18.11,.26,11-5.71,24.68-13.45,36.39-19.25,1.33-.66,2.53-1.47,3.8-2.07,16.27-8.84,20.14-10.61,20.93-21l-.16-.15h.07v-34.66l2.93-1.44,8.16-3.99,6.72-3.29v40.97c-.01,.09-.03,.19-.05,.28l-5.83,5.83c-1.12,1.12-1.12,2.93,0,4.04l9.54,9.54c1.12,1.12,2.93,1.12,4.04,0l3.8-3.8,4.33-4.33,1.42-1.42c1.12-1.12,1.12-2.93,0-4.04l-4.51-4.51v-48.81l2.55-1.25,2.83-1.38c.16-.08,.31-.16,.44-.23h0s1.31-.59,1.78-.8c1.4-.63,2.61-1.37,3.57-2.27,.15-.14,.29-.28,.42-.43Zm-54.9,54.31l-.04-.02c-.22,3.13-1.88,4.96-4.7,6.48-15.18,8.17-30.44,16.24-45.36,24.86-4.85,2.8-8.66,2.53-13.2-.05-14.99-8.53-29.95-17.11-45.2-25.14-4.22-2.22-5.17-5.29-5.34-8.61l-.04-.02v-24.06l11.17,5.51,20.05,9.89,.04-.08s0,0,0,0c5.42,2.66,10.82,5.36,16.17,8.17,6.15,3.23,11.74,3.57,18.11,.26,4.45-2.31,8.94-4.55,13.44-6.77v-.11s34.91-17.07,34.91-17.07v26.75Zm31.07-56.14l-21.92,10.72-25.51,12.58-2.51,1.3-1.65,.76c-11.3,5.59-21.67,10.71-31.95,15.95-.53,.27-1.04,.47-1.54,.64-2.22,.75-4.24,.55-6.57-.59-5.37-2.64-10.74-5.27-16.12-7.91-15.56-7.63-31.23-15.28-47.25-23.1l-19.77-9.75-.03,.05v.03c-2.07-1.01-4.12-2.01-6.2-3.02,12.04-6.09,22.55-11.52,33.16-16.74,18.04-8.88,36.18-17.55,54.18-26.5,3.69-1.84,6.74-2.37,10.71-.42,29.2,14.33,58.53,28.41,88.84,43.06-2,1-3.93,1.97-5.87,2.94Z"/>
</svg>