<svg xmlns="http://www.w3.org/2000/svg" viewBox="0 0 2496.54 491.71"><defs><style>.cls-1{stroke:#000;stroke-miterlimit:10;}</style></defs><g id="Capa_4" data-name="Capa 4"><rect x="1404.6" y="94.67" width="66.92" height="235.01" rx="11.85"/><path d="M1459.67,95.17A11.36,11.36,0,0,1,1471,106.52V317.83a11.36,11.36,0,0,1-11.35,11.35h-43.22a11.36,11.36,0,0,1-11.35-11.35V106.52a11.36,11.36,0,0,1,11.35-11.35h43.22m0-1h-43.22a12.35,12.35,0,0,0-12.35,12.35V317.83a12.35,12.35,0,0,0,12.35,12.35h43.22A12.35,12.35,0,0,0,1472,317.83V106.52a12.35,12.35,0,0,0-12.35-12.35Z"/><polyline class="cls-1" points="2036.03 68.3 1984.59 68.3 2031.42 22.24 2110.62 22.24"/><path d="M732.84,330.68A11.81,11.81,0,0,1,721,318.89V241.51a12.81,12.81,0,0,0-12.79-12.79H617.16a12.81,12.81,0,0,0-12.8,12.79v77.38a11.8,11.8,0,0,1-11.79,11.79h-43a11.8,11.8,0,0,1-11.79-11.79V107.47a11.81,11.81,0,0,1,11.79-11.8h43a11.81,11.81,0,0,1,11.79,11.8v77.37a12.81,12.81,0,0,0,12.8,12.8h91.09A12.81,12.81,0,0,0,721,184.84V107.47a11.81,11.81,0,0,1,11.8-11.8h43.33A11.81,11.81,0,0,1,788,107.47V318.89a11.8,11.8,0,0,1-11.79,11.79Z"/><path d="M776.17,96.17a11.31,11.31,0,0,1,11.29,11.3V318.89a11.3,11.3,0,0,1-11.29,11.29H732.84a11.31,11.31,0,0,1-11.3-11.29V241.51a13.3,13.3,0,0,0-13.29-13.29H617.16a13.31,13.31,0,0,0-13.3,13.29v77.38a11.3,11.3,0,0,1-11.29,11.29h-43a11.3,11.3,0,0,1-11.29-11.29V107.47a11.31,11.31,0,0,1,11.29-11.3h43a11.31,11.31,0,0,1,11.29,11.3v77.37a13.31,13.31,0,0,0,13.3,13.3h91.09a13.3,13.3,0,0,0,13.29-13.3V107.47a11.31,11.31,0,0,1,11.3-11.3h43.33m0-1H732.84a12.3,12.3,0,0,0-12.3,12.3v77.37a12.3,12.3,0,0,1-12.29,12.3H617.16a12.3,12.3,0,0,1-12.3-12.3V107.47a12.3,12.3,0,0,0-12.29-12.3h-43a12.3,12.3,0,0,0-12.29,12.3V318.89a12.29,12.29,0,0,0,12.29,12.29h43a12.29,12.29,0,0,0,12.29-12.29V241.51a12.3,12.3,0,0,1,12.3-12.29h91.09a12.29,12.29,0,0,1,12.29,12.29v77.38a12.3,12.3,0,0,0,12.3,12.29h43.33a12.29,12.29,0,0,0,12.29-12.29V107.47a12.3,12.3,0,0,0-12.29-12.3Z"/><path d="M943.27,330.52a4,4,0,0,1-3.95-3.94V234.43a4.88,4.88,0,0,0-.8-2.7L853.58,101.61a3.94,3.94,0,0,1,3.3-6.1h67.5a4,4,0,0,1,3.36,1.88l41,66.63.14.22a5,5,0,0,0,8.13,0l46.75-67a3.92,3.92,0,0,1,3.23-1.69h67.38a3.95,3.95,0,0,1,3.24,6.2l-90.27,130a4.91,4.91,0,0,0-.89,2.82v92.08a4,4,0,0,1-3.94,3.94Z"/><path d="M1094.34,96a3.45,3.45,0,0,1,2.83,5.41l-90.27,130a5.41,5.41,0,0,0-1,3.11v92.08a3.44,3.44,0,0,1-3.44,3.44H943.27a3.45,3.45,0,0,1-3.45-3.44V234.43a5.38,5.38,0,0,0-.88-3L854,101.34A3.44,3.44,0,0,1,856.88,96h67.5a3.47,3.47,0,0,1,2.94,1.64l41,66.63c.05.08.11.16.16.25a5.45,5.45,0,0,0,8.95,0l.17-.25,46.58-66.8A3.44,3.44,0,0,1,1027,96h67.38m0-1H1027a4.44,4.44,0,0,0-3.64,1.9L976.74,163.7l-.17.26a4.45,4.45,0,0,1-7.31,0l-.13-.21-41-66.62A4.44,4.44,0,0,0,924.38,95h-67.5a4.44,4.44,0,0,0-3.72,6.87L938.1,232a4.46,4.46,0,0,1,.72,2.43v92.15a4.44,4.44,0,0,0,4.45,4.44h59.21a4.44,4.44,0,0,0,4.44-4.44V234.5a4.45,4.45,0,0,1,.8-2.54L1098,102a4.44,4.44,0,0,0-3.65-7Z"/><path d="M2000.06,329.68c-25.61-.11-48.32-6.32-75.92-20.79-31.05-16.26-53-44.18-60.09-76.6-6.15-28-1.6-56.21,12.81-79.55,15.87-25.68,42.57-44,77.23-53.09a324.63,324.63,0,0,1,46.36-3.29c21.12,0,39.89,2.12,55.81,6.29,30.87,8.09,53.09,23.93,69.92,49.83,10.74,16.55,16.49,35.43,17.06,56.1,1,35.37-14.67,68.07-43,89.72-27.61,21.12-60.08,31.38-99.26,31.38Zm3.78-178c-57,0-77.27,32.84-77.27,61s24,58.69,76.76,58.69c22.81,0,41.29-5.3,54.92-15.75a55.55,55.55,0,0,0,22.34-44.94C2080.59,190.29,2064.55,151.71,2003.84,151.71Z"/><path d="M2000.45,96.86c21.08,0,39.81,2.11,55.68,6.27,30.75,8.06,52.87,23.83,69.62,49.63,10.7,16.47,16.42,35.25,17,55.83,1,35.21-14.6,67.76-42.77,89.31-27.51,21.05-59.88,31.28-98.95,31.28h-1c-25.52-.11-48.16-6.31-75.69-20.73-30.92-16.2-52.72-44-59.83-76.26-6.13-27.83-1.6-56,12.75-79.19,15.79-25.56,42.37-43.83,76.88-52.85a322.12,322.12,0,0,1,46.28-3.29m2.88,175c22.93,0,41.51-5.33,55.22-15.85a56,56,0,0,0,22.54-45.34c0-20.57-16.14-59.47-77.25-59.47-57.4,0-77.77,33.11-77.77,61.47s24.18,59.19,77.26,59.19m-2.88-176A320.07,320.07,0,0,0,1954,99.17c-74.13,19.35-102.48,78.39-90.4,133.23,6.62,30.06,26.78,59.35,60.33,76.93,23.77,12.45,47.06,20.73,76.15,20.85h1c39.58,0,71.94-10.35,99.56-31.49a110.07,110.07,0,0,0,26-146.48c-15.3-23.56-36.59-41.23-70.21-50.05-18.48-4.84-38.52-6.3-55.93-6.3Zm2.88,175c-52.4,0-76.26-30.17-76.26-58.19s20.11-60.47,76.77-60.47c60.32,0,76.25,38.25,76.25,58.47A55.09,55.09,0,0,1,2058,255.23c-13.54,10.38-31.92,15.64-54.62,15.64Z"/><path d="M198.8,491.21V335.63l-.43-.05a356.35,356.35,0,0,1-77.13-18.51c-49.27-18-89.18-54.73-106.75-98.3-25.42-63-9.56-129,41.37-172.26A175.48,175.48,0,0,1,105.69,16.8c15.11-5.89,33.2-10.3,53.78-13.08,8.43-1.14,18-2.43,27.42-2.76h.56a3.26,3.26,0,0,1,1.73.36,3.51,3.51,0,0,1,1.16,1.6c1.37,3.17,1.61,5.72.75,7.8-1.46,3.52-5.85,5.25-10.5,7.09l-2,.79c-10.32,4.22-18.89,7.86-27.5,13A138.24,138.24,0,0,0,138.3,40.2a132.57,132.57,0,0,0-22.6,26l-.25.47c-.26.47-.51.94-.75,1.43a204.85,204.85,0,0,0-12.88,32c-5.94,20.36-6.2,41.15-5.94,62.44.06,4.18.21,8.39.45,12.49,6.8,43.66,20.64,76.68,41.15,98.17,16.71,14.43,37.7,23.6,60.76,26.55h0c.52,0,.52-.13.52-5.29V187.6c0-.72-1-72.29,0-97.9,1-27.35,14.88-51.7,23.39-60.63A74.7,74.7,0,0,1,238.39,16c6.12-3.55,12.54-5.93,19.34-8.45l1.64-.61c11.86-4.41,24.78-4.57,37.28-4.74,2.31,0,4.61-.06,6.9-.11,2.54-.11,5.06-.17,7.5-.17h1a182.52,182.52,0,0,1,91.28,25.48C429.58,42.8,450.67,64,462.74,87.09c.38.74,9.39,18.26,13.79,44.93,4.06,24.57,4.76,61.86-15,100-15.77,30.4-42.08,55.16-78.21,73.6C354.7,320.2,328,326.46,319.21,328.51l-1.38.33c-9.32,2.21-30.5,4.91-46.62,6.78l-.45.06V491.21ZM304.86,48.11c-26.87,0-33.3,35.06-33.56,36.55-.48,3.59-.53,5.88-.54,6V302.82l.59-.11c23.14-4.21,40.57-8.48,56.51-13.84l.15-.06c20.18-9.4,36-23,47.07-40.53a169.26,169.26,0,0,0,8.6-19.86c2.64-6.95,5.92-15.61,7.5-24.08.43-2.74.77-5.52,1-8.29.25-3.88.27-7.81.28-11.61v-.69c0-4.33,0-8.31-.12-12.17-.09-1.2-.19-2.38-.3-3.55a188.09,188.09,0,0,0-12.85-51.56,277.24,277.24,0,0,0-12-25.23c-4.09-7.85-10.11-13.63-16-18.71a188.79,188.79,0,0,0-23-16.9,62,62,0,0,0-8.8-4.54A40.58,40.58,0,0,0,304.86,48.11Z"/><path d="M187.45,1.45a2.77,2.77,0,0,1,1.47.29,3.08,3.08,0,0,1,1,1.37c1.31,3,1.56,5.46.75,7.41-1.38,3.32-5.67,5-10.22,6.82-.66.26-1.33.52-2,.79C168.09,22.36,159.5,26,150.86,31.18A139.1,139.1,0,0,0,138,39.8l0,0,0,0a132.51,132.51,0,0,0-22.66,26.08l0,0,0,0-.24.43c-.25.48-.51,1-.75,1.44A201.42,201.42,0,0,0,101.34,100c-6,20.42-6.22,41.26-6,62.58.06,4.2.21,8.41.45,12.52v.09c6.81,43.72,20.7,76.83,41.28,98.39l0,0,0,0c16.74,14.46,37.83,23.67,61,26.64l.45.06.34-.3c.34-.3.34-.3.34-2V187.59c0-.72-1-72.27,0-97.87,1-27.21,14.8-51.43,23.25-60.31a74.32,74.32,0,0,1,16.1-13c6.07-3.52,12.47-5.89,19.24-8.4l1.66-.62C271.32,3,284.2,2.82,296.65,2.66c2.27,0,4.62-.06,6.93-.11,2.52-.11,5-.17,7.48-.17h1a182.11,182.11,0,0,1,91,25.41c26.15,15.38,47.17,36.52,59.19,59.52.1.18,9.32,18.08,13.73,44.67a167.76,167.76,0,0,1,1.36,46.18,153.27,153.27,0,0,1-16.29,53.59c-15.72,30.3-42,55-78,73.39-28.57,14.58-55.24,20.82-64,22.87l-1.39.33c-9.3,2.21-30.45,4.9-46.56,6.78l-.89.1V490.71h-71V335.19l-.87-.11a355.6,355.6,0,0,1-77-18.48,192.5,192.5,0,0,1-66.59-40.71C37.14,259.22,23.35,239.4,15,218.58,3,189,0,157.8,6.32,128.41c6.7-31.32,24-59.51,49.86-81.52a174.9,174.9,0,0,1,49.7-29.62C121,11.39,139,7,159.54,4.22c8.42-1.14,18-2.43,27.36-2.76h.55m82.81,302,1.18-.22c23.16-4.22,40.61-8.49,56.58-13.86h.06l.09,0,.09,0h.05c20.18-9.41,36.06-23.1,47.19-40.68l0,0,0,0a171.68,171.68,0,0,0,8.61-19.89c2.64-7,5.94-15.65,7.53-24.19.42-2.74.77-5.53,1-8.34.25-3.88.27-7.82.28-11.62v-.7c0-4.34,0-8.32-.12-12.23-.09-1.17-.19-2.36-.3-3.54a188.77,188.77,0,0,0-12.89-51.7,278.13,278.13,0,0,0-12-25.27c-4.12-7.93-10.19-13.75-16.13-18.86a189.86,189.86,0,0,0-23.09-16.94,61.31,61.31,0,0,0-8.9-4.59,41,41,0,0,0-14.67-3c-27.28,0-33.79,35.46-34.06,37-.48,3.59-.53,5.91-.54,6V303.42M187.45.45h-.58A275.35,275.35,0,0,0,159.4,3.23c-18.55,2.5-37.1,6.55-53.89,13.11a174.89,174.89,0,0,0-50,29.79C.54,92.84-9.49,160.67,14,219c16.73,41.48,54.55,79.43,107.05,98.59a357.72,357.72,0,0,0,77.23,18.53V491.71h73V336.12c14.85-1.73,37.1-4.52,46.69-6.8,15-3.56,105.58-23,144-97.1s1.23-145.33,1.21-145.36C439,40.62,378.86,1.79,312.07,1.39h-1q-3.75,0-7.52.17c-14.81.36-30.22-.37-44.34,4.88-7.24,2.7-14.4,5.24-21.06,9.09a75.91,75.91,0,0,0-16.32,13.2c-9.6,10.08-22.56,35-23.52,61s0,97.92,0,97.92V299.26c-22.52-2.89-43.68-11.92-60.45-26.41-17.14-18-33.25-47.91-41-97.85q-.37-6.27-.45-12.47c-.26-20.92,0-42,5.92-62.29a203.32,203.32,0,0,1,12.84-31.92c.32-.63.65-1.23,1-1.84A130.9,130.9,0,0,1,138.6,40.6,137.24,137.24,0,0,1,151.38,32c8.83-5.3,17.93-9.1,27.43-13,7.76-3.17,16.66-5.53,12-16.33A3.9,3.9,0,0,0,189.45.89a3.7,3.7,0,0,0-2-.44Zm83.81,301.77V90.64a58.66,58.66,0,0,1,.53-5.89c.23-1.3,6.56-36.14,33.07-36.14a39.84,39.84,0,0,1,14.31,2.94,60.66,60.66,0,0,1,8.73,4.51,188,188,0,0,1,23,16.85c6.35,5.46,12,11.07,15.89,18.56a274.91,274.91,0,0,1,12,25.18,187.58,187.58,0,0,1,12.82,51.42c.12,1.18.22,2.35.3,3.53.1,4.06.13,8.12.12,12.15s0,8.17-.28,12.25q-.39,4.17-1,8.25c-1.52,8.14-4.57,16.33-7.48,24A171.3,171.3,0,0,1,374.66,248c-10.63,16.78-26.14,30.69-46.78,40.3l-.18.07c-18.39,6.19-37.37,10.36-56.44,13.83Z"/><path d="M1350.55,263.67a40.31,40.31,0,0,0-2.79-11.84,33.84,33.84,0,0,0-1.66-3.69,31.84,31.84,0,0,0-4.78-6.74,51.36,51.36,0,0,0-5.09-5.93c-.62-.62-1.25-1.22-1.9-1.81a78.22,78.22,0,0,0-16.67-12c-1-.54-2-1.06-3-1.57-5.65-2.59-11.19-5.1-16.74-7.5h0l-.25-.09-.2-.09h0c-5.58-2-11.21-4.07-16.83-6.07l-3.82-1.36c-14.83-6.81-30.83-9.81-45.73-16.35-1.27-.51-2.53-1-3.79-1.55-8.79-3.64-17.51-7.59-26.18-11.34-1.32-.62-2.62-1.27-3.89-2-6.35-3.41-12-7.72-14.67-14.83-.3-.84-.56-1.7-.79-2.56a31.55,31.55,0,0,1-1-8,32.44,32.44,0,0,1,.29-4,36.36,36.36,0,0,1,3.8-11.27,34.9,34.9,0,0,1,2-3.21c.69-.78,1.37-1.54,2.06-2.29s1.38-1.47,2.08-2.17c9-9.24,21-13.24,32.49-16.79,1.14-.28,2.28-.59,3.43-.9,2.16-.54,4.31-1.11,6.47-1.66.71-.18,1.43-.35,2.16-.5,1.4-.23,2.83-.48,4.25-.73l4.27-.73h0a164.54,164.54,0,0,1,16.74-1c.62,0,1.25,0,1.86.05,1.89.31,3.75.53,5.57.78l1.81.26c1.6.54,3.42,1,5.27,1.53.93.26,1.87.54,2.79.84,9.84,2.63,11.84,13.63,19.76,19.59.76.52,1.54,1,2.34,1.45a41.5,41.5,0,0,0,18.57,4.86,26.56,26.56,0,0,0,3-.26c.58,0,1.17,0,1.77-.08,7.75-.66,16.38-5.62,16.51-14.63a7.19,7.19,0,0,0-1-2.88,11.19,11.19,0,0,0-2.44-2.77c-1.34-1.11-9.74-6.24-25.33-10.77-6.18-1.8-12.28-3.25-18.34-4.4l-3.62-.66c-4-.61-7.28-1.33-10.94-1.66-.61,0-1.23-.1-1.86-.13-9.57-1-18.57-1-29-1.11l-2,0c-8.07.25-16.11.88-24.16,1.78l-4,.47a267.41,267.41,0,0,0-35.07,7.05c-1.36.44-2.72.92-4.07,1.42a133.16,133.16,0,0,0-19.2,9.18c-1.09.71-2.17,1.45-3.22,2.23a58,58,0,0,0-8.87,8.06c-1,1-1.9,2-2.77,3.08a40.36,40.36,0,0,0-6.36,10.44c-.64,1.23-1.24,2.48-1.78,3.76a48.16,48.16,0,0,0-3.72,16.76,37.1,37.1,0,0,0,.11,3.94,39.92,39.92,0,0,0,2.79,11.84,30.41,30.41,0,0,0,1.66,3.69,31.44,31.44,0,0,0,4.77,6.74,49.68,49.68,0,0,0,5.1,5.93c.61.62,1.25,1.22,1.89,1.81a77.69,77.69,0,0,0,16.68,12c1,.54,2,1.06,3,1.58,5.65,2.58,11.18,5.09,16.73,7.5h0l.24.08.21.1h0c5.57,2,11.2,4.06,16.82,6.07l3.83,1.35c14.82,6.81,30.82,9.81,45.73,16.36,1.27.5,2.52,1,3.78,1.54,8.79,3.64,17.51,7.59,26.19,11.34,1.31.63,2.61,1.27,3.88,2,6.35,3.41,12,7.72,14.68,14.83.3.84.56,1.7.78,2.56a31.1,31.1,0,0,1,1,8,32.42,32.42,0,0,1-.28,4.05,36.27,36.27,0,0,1-3.8,11.27,35.76,35.76,0,0,1-2,3.21c-.69.78-1.38,1.55-2.06,2.29s-1.38,1.47-2.09,2.17c-9,9.24-21,13.24-32.49,16.79q-1.71.43-3.42.9c-2.16.54-4.31,1.11-6.47,1.66-.72.18-1.44.35-2.16.5-1.41.23-2.83.48-4.26.73s-2.84.5-4.26.73h0a164.57,164.57,0,0,1-16.75,1c-.62,0-1.24,0-1.86,0-1.88-.31-3.74-.53-5.57-.78-.6-.08-1.21-.16-1.81-.26-1.59-.54-3.41-1-5.27-1.53-.92-.26-1.86-.54-2.78-.84-9.85-2.63-11.85-13.63-19.77-19.59-.75-.51-1.54-1-2.34-1.45a41.46,41.46,0,0,0-18.56-4.86,26.58,26.58,0,0,0-3,.27c-.58,0-1.17,0-1.77.07-7.75.67-16.38,5.62-16.51,14.63a7.38,7.38,0,0,0,1,2.89,11.61,11.61,0,0,0,2.45,2.76c1.33,1.12,9.73,6.24,25.32,10.77,6.18,1.8,12.29,3.25,18.34,4.41,1.21.23,2.42.44,3.63.65,4,.61,7.28,1.33,10.93,1.66.61.05,1.23.1,1.87.13,9.56,1,18.56,1,29,1.11l2-.05c8.06-.25,16.1-.88,24.16-1.78l4-.47a269.53,269.53,0,0,0,35.08-7c1.36-.45,2.71-.93,4.06-1.43a132.11,132.11,0,0,0,19.2-9.18c1.1-.71,2.17-1.45,3.23-2.23a57.88,57.88,0,0,0,8.86-8c1-1,1.9-2,2.78-3.09a40,40,0,0,0,6.35-10.44c.65-1.23,1.24-2.48,1.79-3.76a48.38,48.38,0,0,0,3.72-16.75C1350.69,266.31,1350.65,265,1350.55,263.67Z"/><path d="M1724.83,329.68a8.29,8.29,0,0,1-6.08-2.65l-87.39-94.51v85.31a11.86,11.86,0,0,1-11.85,11.85h-43.22a11.86,11.86,0,0,1-11.85-11.85V106.52a11.87,11.87,0,0,1,11.85-11.85h43.22a11.86,11.86,0,0,1,11.85,11.85v58.56l77.79-68.35a8.26,8.26,0,0,1,5.46-2.06h76.32a8.27,8.27,0,0,1,5.46,14.49l-103.7,91.11L1799.51,315.8a8.26,8.26,0,0,1-6.07,13.88Z"/><path d="M1790.93,95.17a7.77,7.77,0,0,1,5.13,13.61l-103.32,90.78-.77.68.7.75,106.47,115.15a7.76,7.76,0,0,1-5.7,13h-68.61a7.83,7.83,0,0,1-5.71-2.49l-86.52-93.57-1.74-1.88v86.59a11.36,11.36,0,0,1-11.35,11.35h-43.22a11.37,11.37,0,0,1-11.35-11.35V106.52a11.36,11.36,0,0,1,11.35-11.35h43.22a11.36,11.36,0,0,1,11.35,11.35v59.66l1.66-1.46,77-67.61a7.76,7.76,0,0,1,5.13-1.94h76.32m0-1h-76.32a8.76,8.76,0,0,0-5.79,2.19l-77,67.61V106.52a12.35,12.35,0,0,0-12.35-12.35h-43.22a12.35,12.35,0,0,0-12.35,12.35V317.83a12.35,12.35,0,0,0,12.35,12.35h43.22a12.35,12.35,0,0,0,12.35-12.35v-84l86.53,93.57a8.78,8.78,0,0,0,6.44,2.81h68.61a8.77,8.77,0,0,0,6.44-14.72L1693.4,200.31l103.32-90.78a8.77,8.77,0,0,0-5.79-15.36Z"/><path class="cls-1" d="M2496.39,301.92a93,93,0,0,0-3.65-20.95,67.5,67.5,0,0,0-2.17-6.53,58.37,58.37,0,0,0-6.25-11.93,87.06,87.06,0,0,0-6.66-10.5c-.8-1.09-1.63-2.16-2.47-3.2a109.87,109.87,0,0,0-21.8-21.26c-1.29-1-2.59-1.88-3.89-2.78-7.39-4.57-14.62-9-21.88-13.28h.06l-.32-.15-.27-.17H2427c-7.3-3.54-14.66-7.19-22-10.74l-5-2.4c-19.38-12-40.3-17.35-59.79-28.94-1.66-.9-3.3-1.81-4.95-2.73q-2.87-1.62-5.73-3.27t-5.73-3.33c-23.8-11.6-48.8-31.6-48.36-62a37.32,37.32,0,0,0,.65-5.78,41.08,41.08,0,0,1,0-6.84,44.83,44.83,0,0,1,1.08-6.64c2.8-14.36,12.8-24.36,22.84-33.29,1.58-1.34,3.2-2.65,4.84-3.91,10.59-7.81,23.07-12.6,35.85-16.72,1.83-.59,3.66-1.16,5.49-1.73a125.29,125.29,0,0,1,28.15-4.54c1.92,0,3.82,0,5.72.07a30.91,30.91,0,0,1,19.12,5,37.54,37.54,0,0,1,4.88,3.85c10.44,11.82,17,30.06,29.92,38.4a30.74,30.74,0,0,0,6,3c12,3.46,28,6.46,37-4.54,7-10,10-28-3.6-35q-2-1.46-4.74-3.23a138.91,138.91,0,0,0-23.54-11.8,204.93,204.93,0,0,0-24-7.79c-1.58-.41-3.16-.8-4.74-1.16-5.26-1.09-9.52-2.35-14.3-2.94-.79-.09-1.6-.17-2.44-.23-12.5-1.82-24.27-1.82-37.88-2l-2.64.1a291.26,291.26,0,0,0-31.59,3.15l-5.27.83A291,291,0,0,0,2284,13.84c-2.51.84-5,1.74-7.58,2.71A207.91,207.91,0,0,0,2255,28.15c-2.3,1.45-4.55,3-6.74,4.52C2225,48.16,2212,74.16,2209.43,100a79.9,79.9,0,0,0-.55,8.78,75,75,0,0,0-.27,8.46,54.9,54.9,0,0,0,2.95,16.61q.8,3.51,1.92,6.93a72.73,72.73,0,0,0,9.79,19.38q1.53,2.79,3.19,5.42c1.11,1.75,2.28,3.44,3.49,5.08.8,1.09,1.63,2.15,2.47,3.2a109.88,109.88,0,0,0,21.8,21.26c1.29.95,2.59,1.87,3.89,2.78,7.39,4.57,14.62,9,21.88,13.27h-.06l.32.16.27.16h.06c3.65,1.77,7.31,3.57,11,5.37l5.51,2.7q3.6,2.19,7.27,4.2c2.45,1.34,4.93,2.63,7.42,3.87C2337,242.16,2364,251.16,2389,266l5.94,3.53q3,1.75,5.9,3.54a60,60,0,0,1,24.65,24.14A53.21,53.21,0,0,1,2429,305a59.86,59.86,0,0,1,2.06,8,52.56,52.56,0,0,1,.89,8.08,69.35,69.35,0,0,1-4,23.25,31.85,31.85,0,0,1-6,10.91c-3.84,4.44-7.65,8.28-13.25,10.31a98.9,98.9,0,0,1-19.18,5.06c-13.58,2.06-27.36,1.53-41.05,1.53H370.23c-6.87,0-12.45,4.11-12.45,9.18v32.08c0,5.07,5.58,9.17,12.45,9.17H2312.74c18.05,0,36.24-.27,54.12-3,16.13-2.48,32.27-4.86,48-9.2q3.57-1,7.1-2.11,2.91-.93,5.79-2a147.73,147.73,0,0,0,15.08-6.36c2.18-1.19,4.34-2.46,6.46-3.82s4.22-2.79,6.28-4.33,4-2.95,6-4.47q2.14-1.87,4.22-3.94c9.21-8.25,13.21-19.25,19.89-28.54q1.05-2.31,2-4.72c.61-1.62,1.16-3.26,1.67-4.95.85-2.16,1.63-4.38,2.33-6.64a111.34,111.34,0,0,0,4.87-29.66Q2496.59,305.43,2496.39,301.92Z"/></g></svg>